<?xml version="1.0" encoding="UTF-8" standalone="no"?>
<svg
   xmlns:dc="http://purl.org/dc/elements/1.1/"
   xmlns:cc="http://creativecommons.org/ns#"
   xmlns:rdf="http://www.w3.org/1999/02/22-rdf-syntax-ns#"
   xmlns:svg="http://www.w3.org/2000/svg"
   xmlns="http://www.w3.org/2000/svg"
   xmlns:sodipodi="http://sodipodi.sourceforge.net/DTD/sodipodi-0.dtd"
   xmlns:inkscape="http://www.inkscape.org/namespaces/inkscape"
   version="1.1"
   width="24"
   height="24"
   viewBox="0 0 24 24"
   id="svg68"
   sodipodi:docname="fast.svg"
   inkscape:version="1.0.1 (1.0.1+r73)">
  <metadata
     id="metadata74">
    <rdf:RDF>
      <cc:Work
         rdf:about="">
        <dc:format>image/svg+xml</dc:format>
        <dc:type
           rdf:resource="http://purl.org/dc/dcmitype/StillImage" />
        <dc:title></dc:title>
      </cc:Work>
    </rdf:RDF>
  </metadata>
  <defs
     id="defs72" />
  <sodipodi:namedview
     pagecolor="#ffffff"
     bordercolor="#666666"
     borderopacity="1"
     objecttolerance="10"
     gridtolerance="10"
     guidetolerance="10"
     inkscape:pageopacity="0"
     inkscape:pageshadow="2"
     inkscape:window-width="1920"
     inkscape:window-height="1007"
     id="namedview70"
     showgrid="false"
     inkscape:zoom="34.041667"
     inkscape:cx="12"
     inkscape:cy="9.6499388"
     inkscape:window-x="0"
     inkscape:window-y="32"
     inkscape:window-maximized="1"
     inkscape:current-layer="svg68" />
  <path
     d="m 12,16 c -1.66,0 -3,-1.34 -3,-3 0,-1.12 0.61,-2.1 1.5,-2.61 l 9.71,-5.62 -5.53,9.58 C 14.18,15.33 13.17,16 12,16 M 12,3 c 1.81,0 3.5,0.5 4.97,1.32 l -2.1,1.21 C 14,5.19 13,5 12,5 7.58,5 4,8.58 4,13 c 0,2.21 0.89,4.21 2.34,5.65 h 0.01 c 0.39,0.39 0.39,1.02 0,1.41 C 5.96,20.45 5.32,20.45 4.93,20.07 3.12,18.26 2,15.76 2,13 2,7.5 6.5,3 12,3 m 10,10 c 0,2.76 -1.12,5.26 -2.93,7.07 -0.39,0.38 -1.02,0.38 -1.41,-0.01 -0.39,-0.39 -0.39,-1.02 0,-1.41 C 19.11,17.2 20,15.21 20,13 20,12 19.81,11 19.46,10.1 L 20.67,8 C 21.5,9.5 22,11.18 22,13 Z"
     id="path66" />
</svg>
