<?xml version="1.0" encoding="UTF-8" standalone="no"?>
<svg
   xmlns:dc="http://purl.org/dc/elements/1.1/"
   xmlns:cc="http://creativecommons.org/ns#"
   xmlns:rdf="http://www.w3.org/1999/02/22-rdf-syntax-ns#"
   xmlns:svg="http://www.w3.org/2000/svg"
   xmlns="http://www.w3.org/2000/svg"
   xmlns:sodipodi="http://sodipodi.sourceforge.net/DTD/sodipodi-0.dtd"
   xmlns:inkscape="http://www.inkscape.org/namespaces/inkscape"
   version="1.1"
   width="24"
   height="24"
   viewBox="0 0 24 24"
   id="svg134"
   sodipodi:docname="fast-forward-10.svg"
   inkscape:version="1.0.1 (1.0.1+r73)">
  <metadata
     id="metadata140">
    <rdf:RDF>
      <cc:Work
         rdf:about="">
        <dc:format>image/svg+xml</dc:format>
        <dc:type
           rdf:resource="http://purl.org/dc/dcmitype/StillImage" />
      </cc:Work>
    </rdf:RDF>
  </metadata>
  <defs
     id="defs138" />
  <sodipodi:namedview
     pagecolor="#ffffff"
     bordercolor="#666666"
     borderopacity="1"
     objecttolerance="10"
     gridtolerance="10"
     guidetolerance="10"
     inkscape:pageopacity="0"
     inkscape:pageshadow="2"
     inkscape:window-width="1920"
     inkscape:window-height="1007"
     id="namedview136"
     showgrid="false"
     inkscape:zoom="34.333333"
     inkscape:cx="12"
     inkscape:cy="14.878033"
     inkscape:window-x="0"
     inkscape:window-y="32"
     inkscape:window-maximized="1"
     inkscape:current-layer="svg134" />
  <path
     d="M 10,12 V 22 H 8 V 14 H 6 v -2 h 4 m 1.5,-9 c 2.65,0 5.05,1 6.9,2.6 L 21,3 v 7 H 14 L 16.62,7.38 C 15.23,6.22 13.46,5.5 11.5,5.5 7.96,5.5 4.95,7.81 3.9,11 L 1.53,10.22 C 2.92,6.03 6.85,3 11.5,3 Z"
     id="path132"
     sodipodi:nodetypes="cccccccscccccsccs" />
  <path
     d="m 12.53225,12.013938 h 6 v 2 h -4 v 2 h 2 c 1.11,0 2,0.9 2,2 v 2 c 0,1.11 -0.89,2 -2,2 h -4 v -2 h 4 v -2 h -4 z"
     id="path180"
     sodipodi:nodetypes="cccccsssscccccc" />
</svg>
